<?xml version="1.0" standalone="no"?>
<!DOCTYPE svg PUBLIC "-//W3C//DTD SVG 20010904//EN"
 "http://www.w3.org/TR/2001/REC-SVG-20010904/DTD/svg10.dtd">
<svg version="1.0" xmlns="http://www.w3.org/2000/svg"
 width="591.000000pt" height="591.000000pt" viewBox="0 0 591.000000 591.000000"
 preserveAspectRatio="xMidYMid meet">
<metadata>
Created by potrace 1.14, written by Peter Selinger 2001-2017
</metadata>
<g transform="translate(0.000000,591.000000) scale(0.100000,-0.100000)"
fill="#000000" stroke="none">
<path d="M697 3483 c-19 -18 2 -23 98 -23 87 0 105 3 105 15 0 12 -18 15 -98
15 -54 0 -102 -3 -105 -7z"/>
<path d="M1100 3475 c0 -13 16 -15 102 -13 70 2 103 7 106 16 3 9 -22 12 -102
12 -89 0 -106 -3 -106 -15z"/>
<path d="M1507 3484 c-17 -17 13 -24 104 -24 81 0 99 3 99 15 0 12 -18 15 -98
15 -54 0 -102 -3 -105 -6z"/>
<path d="M685 3432 c-3 -3 -5 -11 -5 -19 0 -10 24 -13 106 -13 95 0 105 2 102
18 -3 15 -16 17 -101 18 -53 0 -99 -2 -102 -4z"/>
<path d="M1092 3424 c-15 -11 -15 -13 -1 -19 8 -3 58 -4 110 -3 76 2 94 6 94
18 0 12 -17 15 -93 16 -60 0 -99 -4 -110 -12z"/>
<path d="M1500 3426 c-22 -22 -6 -26 96 -26 95 0 105 2 102 18 -3 15 -16 17
-95 18 -51 0 -97 -4 -103 -10z"/>
<path d="M670 3360 c0 -20 5 -21 103 -18 83 2 102 6 102 18 0 12 -19 16 -102
18 -98 3 -103 2 -103 -18z"/>
<path d="M1077 3373 c-4 -3 -7 -12 -7 -20 0 -20 206 -19 213 1 3 8 3 17 0 20
-9 8 -198 8 -206 -1z"/>
<path d="M1480 3360 c0 -20 5 -21 102 -18 89 3 103 5 106 21 3 15 -7 17 -102
17 -100 0 -106 -1 -106 -20z"/>
<path d="M656 3304 c-3 -9 -6 -18 -6 -20 0 -2 47 -4 104 -4 101 0 116 5 116
36 0 2 -47 4 -104 4 -85 0 -105 -3 -110 -16z"/>
<path d="M1060 3300 c0 -19 7 -20 105 -20 98 0 105 1 105 20 0 19 -7 20 -105
20 -98 0 -105 -1 -105 -20z"/>
<path d="M1467 3300 c-5 -20 -2 -21 101 -18 87 2 107 6 107 18 0 12 -19 16
-101 18 -95 3 -102 1 -107 -18z"/>
<path d="M1800 3302 c-17 -2 -29 -12 -36 -30 -14 -38 -7 -52 26 -52 31 0 45
13 55 51 7 29 -4 37 -45 31z"/>
<path d="M1884 3273 c-21 -49 -18 -55 23 -51 32 3 38 7 49 41 7 20 10 37 6 38
-59 7 -65 4 -78 -28z"/>
<path d="M2403 3302 c-28 -4 -87 -58 -78 -72 4 -6 81 -10 209 -10 l203 0 11
37 c6 20 9 39 7 42 -5 5 -318 8 -352 3z"/>
<path d="M2884 3302 c-46 -7 -61 -12 -82 -32 -49 -46 -37 -49 182 -49 178 0
205 2 210 16 9 23 -20 63 -47 64 -75 3 -246 4 -263 1z"/>
<path d="M3251 3295 c-5 -5 -12 -25 -16 -42 l-7 -33 91 0 c50 0 91 4 91 8 0 4
-15 23 -33 41 -26 24 -44 32 -76 34 -23 2 -46 -2 -50 -8z"/>
<path d="M3608 3302 c-17 -3 -42 -58 -32 -73 3 -5 19 -9 35 -9 25 0 33 6 45
35 7 19 14 36 14 39 0 6 -43 12 -62 8z"/>
<path d="M659 3258 c-10 -4 -19 -14 -19 -23 0 -23 205 -22 214 1 4 9 4 19 1
22 -8 8 -174 8 -196 0z"/>
<path d="M1067 3261 c-16 -5 -27 -23 -21 -33 3 -4 52 -8 110 -8 101 0 104 1
104 23 0 21 -3 22 -90 22 -50 0 -96 -2 -103 -4z"/>
<path d="M1462 3254 c-32 -23 -1 -34 98 -34 82 0 99 3 104 16 4 9 4 19 1 22
-10 10 -188 7 -203 -4z"/>
<path d="M635 3202 c-3 -3 -5 -14 -5 -24 0 -16 10 -18 105 -18 l105 0 0 25 0
25 -100 -2 c-55 0 -102 -3 -105 -6z"/>
<path d="M1037 3188 c-7 -26 5 -29 114 -26 86 3 94 5 94 23 0 19 -7 20 -102
21 -93 2 -102 0 -106 -18z"/>
<path d="M1445 3202 c-3 -3 -5 -14 -5 -24 0 -16 10 -18 105 -18 l105 0 0 25 0
25 -100 -1 c-55 -1 -102 -4 -105 -7z"/>
<path d="M1769 3202 c-23 -3 -29 -12 -51 -85 -14 -45 -23 -85 -21 -89 7 -13
61 -9 70 5 8 12 53 146 53 158 0 10 -22 15 -51 11z"/>
<path d="M1888 3202 c-23 -3 -29 -12 -45 -60 -37 -114 -23 -122 208 -122 l170
0 15 35 c7 19 14 37 14 40 0 3 -71 5 -158 5 -100 0 -162 4 -169 11 -7 7 -8 21
0 45 12 40 4 51 -35 46z"/>
<path d="M2313 3192 c-14 -14 -4 -44 20 -59 6 -4 73 -9 147 -9 161 -2 153 -2
145 -14 -4 -6 -73 -10 -174 -10 l-167 0 -12 -33 c-7 -18 -12 -37 -12 -41 0 -4
85 -6 190 -4 l190 3 30 30 c21 21 32 44 36 77 6 41 4 47 -16 58 -33 18 -359
19 -377 2z"/>
<path d="M2776 3196 c-7 -6 -22 -35 -31 -65 -20 -62 -11 -97 28 -106 14 -4 90
-5 170 -3 177 4 190 10 221 107 17 51 18 64 7 70 -27 17 -63 -3 -76 -43 -8
-22 -20 -43 -27 -48 -7 -4 -65 -7 -128 -6 -126 3 -124 2 -106 69 7 23 4 27
-18 31 -14 3 -32 0 -40 -6z"/>
<path d="M3245 3201 c-26 -6 -31 -13 -52 -81 -31 -100 -30 -102 14 -98 l37 3
25 83 c14 49 20 86 15 91 -5 4 -22 5 -39 2z"/>
<path d="M3334 3198 c-2 -3 35 -46 82 -93 84 -83 89 -86 128 -83 45 3 48 8 81
130 l13 46 -30 4 c-35 6 -54 -10 -63 -52 -4 -16 -10 -30 -13 -30 -4 0 -25 18
-46 40 -25 25 -49 40 -65 41 -14 0 -39 2 -54 3 -16 1 -30 -2 -33 -6z"/>
<path d="M620 3124 l0 -24 504 0 c529 0 516 -1 516 40 0 4 -229 8 -510 8
l-510 0 0 -24z"/>
<path d="M643 3065 c16 -15 40 -25 58 -25 16 0 29 -4 29 -10 0 -13 736 -14
744 -1 3 4 26 11 52 14 28 3 54 13 67 26 l21 21 -499 0 -500 -1 28 -24z"/>
<path d="M1564 2894 c-5 -1 -22 -5 -38 -9 -15 -3 -25 -9 -21 -13 9 -9 655 -10
661 -1 11 18 -57 23 -317 24 -152 0 -280 0 -285 -1z"/>
<path d="M4016 2842 c-28 -43 -25 -52 14 -52 22 0 33 8 49 35 17 30 18 36 6
40 -8 3 -22 7 -30 10 -9 3 -24 -10 -39 -33z"/>
<path d="M1425 2829 c-4 -6 -4 -13 -1 -17 7 -6 772 -10 793 -4 6 2 9 10 6 18
-4 12 -68 14 -398 14 -268 0 -396 -3 -400 -11z"/>
<path d="M1403 2773 c-9 -23 4 -27 90 -28 86 -1 140 10 134 28 -5 17 -218 17
-224 0z"/>
<path d="M1998 2779 c-6 -4 -2 -12 10 -20 17 -12 101 -17 195 -10 16 1 25 30
10 32 -31 5 -207 3 -215 -2z"/>
<path d="M5152 2760 c-54 -4 -67 -9 -88 -33 -44 -51 -36 -57 84 -58 159 -1
226 2 234 9 11 11 20 82 11 83 -42 3 -191 3 -241 -1z"/>
<path d="M2285 2738 c-12 -59 -11 -63 21 -66 33 -3 44 13 44 66 0 18 -6 22
-30 22 -23 0 -31 -5 -35 -22z"/>
<path d="M2571 2737 c-21 -54 -18 -62 18 -62 23 0 35 5 36 15 11 66 11 65 -17
68 -22 3 -30 -2 -37 -21z"/>
<path d="M2667 2743 c-3 -10 -8 -30 -11 -45 l-6 -28 175 0 c96 0 175 3 176 8
0 6 4 22 9 47 8 34 1 35 -169 35 -153 0 -170 -2 -174 -17z"/>
<path d="M3060 2729 c-16 -18 -30 -38 -30 -45 0 -16 60 -20 228 -16 118 3 122
4 122 25 0 13 -7 33 -16 45 -14 21 -22 22 -144 22 l-130 0 -30 -31z"/>
<path d="M3426 2752 c-2 -4 -7 -24 -11 -45 l-7 -37 66 0 66 0 -6 28 c-13 52
-23 62 -64 62 -21 0 -41 -3 -44 -8z"/>
<path d="M3701 2721 c-17 -21 -31 -42 -31 -45 0 -3 29 -6 64 -6 l64 0 10 40
c5 21 7 42 4 45 -3 3 -22 5 -43 5 -31 0 -42 -6 -68 -39z"/>
<path d="M3881 2746 c-22 -12 -50 -50 -51 -68 0 -5 79 -8 175 -8 l175 0 0 23
c0 12 -7 33 -16 45 -14 21 -22 22 -137 22 -82 -1 -130 -5 -146 -14z"/>
<path d="M4225 2728 c4 -18 7 -39 8 -45 0 -8 16 -13 43 -13 l42 0 -13 43 c-11
39 -15 42 -50 45 l-38 3 8 -33z"/>
<path d="M4466 2720 c-14 -22 -26 -42 -26 -45 0 -3 16 -5 35 -5 28 0 39 6 60
37 32 49 32 53 -9 53 -28 0 -38 -6 -60 -40z"/>
<path d="M4614 2750 c-11 -4 -28 -23 -37 -42 l-16 -33 107 -5 c59 -3 137 -4
175 -2 71 4 70 3 79 67 3 19 -3 20 -142 22 -80 1 -154 -2 -166 -7z"/>
<path d="M4955 2738 c-12 -60 -11 -63 23 -66 23 -2 32 1 32 11 0 8 3 29 6 46
6 29 5 31 -25 31 -24 0 -32 -5 -36 -22z"/>
<path d="M1391 2716 c-19 -22 2 -29 97 -30 85 -1 122 10 108 32 -11 18 -190
16 -205 -2z"/>
<path d="M2004 2715 c-3 -8 -4 -18 -1 -22 6 -9 195 -8 204 0 3 4 3 13 0 22 -9
22 -195 22 -203 0z"/>
<path d="M1377 2656 c-7 -18 1 -26 25 -26 10 0 18 -4 18 -9 0 -4 -8 -8 -17 -8
-37 0 -43 -4 -43 -23 0 -19 7 -20 106 -20 104 0 105 0 102 23 -3 20 -8 22 -70
22 -38 -1 -68 2 -68 6 0 4 32 8 72 8 68 0 95 11 82 33 -3 4 -49 8 -104 8 -75
0 -99 -3 -103 -14z"/>
<path d="M1990 2655 c-9 -11 -31 -15 -74 -14 -96 2 -126 0 -126 -8 0 -14 393
-4 401 9 14 23 -3 28 -95 28 -71 0 -97 -4 -106 -15z"/>
<path d="M2272 2641 c-10 -7 -36 -114 -34 -145 0 -10 9 -27 18 -37 15 -17 32
-19 141 -19 96 0 129 4 148 16 26 17 54 87 58 148 2 34 -1 39 -21 41 -28 2
-38 -10 -46 -56 -10 -55 -22 -60 -127 -57 -104 3 -101 1 -86 76 5 26 3 30 -18
34 -13 3 -28 2 -33 -1z"/>
<path d="M2792 2641 c-7 -5 -31 -104 -45 -186 -1 -5 12 -11 29 -13 30 -3 31
-1 44 55 29 131 29 146 3 148 -12 1 -26 -1 -31 -4z"/>
<path d="M3031 2641 c-5 -4 -17 -37 -25 -74 -16 -69 -12 -100 18 -119 6 -4 66
-8 133 -8 115 0 123 1 151 25 16 13 33 39 36 57 4 18 10 44 13 58 14 63 10 68
-46 61 -5 0 -12 -19 -16 -41 -11 -64 -24 -71 -129 -68 -101 3 -97 -1 -85 82 3
24 0 30 -18 31 -12 1 -27 -1 -32 -4z"/>
<path d="M3412 2641 c-10 -6 -37 -101 -49 -173 -4 -25 -1 -28 26 -28 29 0 36
8 46 57 2 10 8 39 15 64 7 26 10 55 8 65 -3 18 -28 26 -46 15z"/>
<path d="M3480 2632 c0 -8 12 -55 27 -104 35 -119 45 -118 140 10 39 53 71 98
69 99 -1 1 -14 4 -30 7 -24 4 -35 -1 -63 -31 -18 -20 -33 -41 -33 -45 0 -4 -4
-8 -10 -8 -5 0 -10 8 -10 18 0 38 -24 65 -57 67 -23 1 -33 -3 -33 -13z"/>
<path d="M3731 2636 c-8 -11 -41 -155 -41 -181 0 -10 10 -15 29 -15 29 0 30 3
46 73 24 112 24 130 -3 132 -12 1 -26 -3 -31 -9z"/>
<path d="M3833 2642 c-6 -4 -15 -29 -21 -57 -21 -96 -21 -105 1 -126 18 -17
36 -19 140 -19 156 0 176 11 197 105 19 84 21 95 13 96 -49 8 -53 6 -63 -35
-18 -71 -18 -71 -120 -74 -51 -1 -97 1 -102 6 -5 5 -5 27 1 53 5 24 8 45 7 47
-8 7 -44 10 -53 4z"/>
<path d="M4253 2634 c-2 -7 6 -52 19 -100 20 -77 26 -89 46 -92 13 -2 30 2 38
9 23 19 125 179 120 188 -4 7 -15 7 -58 2 -4 -1 -22 -22 -40 -48 l-32 -48 -11
42 c-5 23 -13 45 -18 49 -12 12 -59 11 -64 -2z"/>
<path d="M4560 2640 c-10 -6 -34 -117 -32 -149 3 -44 26 -50 184 -51 l148 0 6
28 c3 15 8 35 11 45 4 16 -7 17 -137 17 -109 0 -141 3 -137 13 3 9 40 12 139
12 75 0 139 2 142 5 3 3 8 24 11 45 l7 40 -167 0 c-92 0 -170 -2 -175 -5z"/>
<path d="M4944 2642 c-6 -4 -19 -41 -28 -82 -30 -133 -31 -122 5 -118 35 3 38
10 59 108 5 25 11 55 14 68 3 12 1 22 -4 22 -4 0 -14 2 -22 5 -7 3 -18 1 -24
-3z"/>
<path d="M5030 2625 c-8 -21 2 -49 23 -62 6 -4 59 -8 117 -9 126 -2 120 -2
120 -14 0 -6 -53 -10 -140 -10 l-140 0 -10 -26 c-6 -14 -10 -34 -10 -45 0 -18
8 -19 151 -19 l151 0 29 29 c16 16 29 35 30 43 0 7 2 21 5 31 10 43 10 53 1
75 -12 25 -7 24 -186 26 -125 1 -134 0 -141 -19z"/>
<path d="M1710 2602 c-57 -30 -42 -32 212 -32 247 0 256 1 261 20 6 24 27 22
-233 24 -159 1 -221 -2 -240 -12z"/>
<path d="M1355 2552 c-12 -12 -4 -41 13 -45 13 -4 11 -5 -5 -6 -13 0 -23 -8
-24 -16 -3 -45 -3 -55 4 -55 4 0 47 0 95 0 85 0 89 1 100 25 16 35 15 45 -5
46 -14 0 -13 2 5 9 12 5 22 18 22 29 0 18 -7 19 -100 19 -55 -1 -102 -3 -105
-6z m128 -49 c-18 -2 -48 -2 -65 0 -18 2 -4 4 32 4 36 0 50 -2 33 -4z"/>
<path d="M1607 2549 c-38 -22 1 -29 166 -30 95 -1 197 -4 227 -9 l55 -7 -46
-2 c-33 -1 -49 -6 -53 -17 -10 -26 -7 -34 12 -35 14 0 14 -2 -3 -9 -13 -6 13
-9 76 -9 93 -1 96 0 107 24 19 41 15 45 -40 47 l-53 1 55 6 c46 5 55 9 58 27
3 21 3 22 -270 22 -162 0 -280 -4 -291 -9z m440 -105 c-3 -3 -12 -4 -19 -1 -8
3 -5 6 6 6 11 1 17 -2 13 -5z"/>
</g>
</svg>
