<svg width="20" height="17" viewBox="0 0 20 17" fill="none" xmlns="http://www.w3.org/2000/svg">
<path d="M3.6 4.67188H16.6C16.85 4.67188 17.1 4.45312 17.1 4.17188V2.92188C17.1 2.67188 16.85 2.42188 16.6 2.42188H3.6C3.31875 2.42188 3.1 2.67188 3.1 2.92188V4.17188C3.1 4.45312 3.31875 4.67188 3.6 4.67188ZM3.6 9.67188H16.6C16.85 9.67188 17.1 9.45312 17.1 9.17188V7.92188C17.1 7.67188 16.85 7.42188 16.6 7.42188H3.6C3.31875 7.42188 3.1 7.67188 3.1 7.92188V9.17188C3.1 9.45312 3.31875 9.67188 3.6 9.67188ZM3.6 14.6719H16.6C16.85 14.6719 17.1 14.4531 17.1 14.1719V12.9219C17.1 12.6719 16.85 12.4219 16.6 12.4219H3.6C3.31875 12.4219 3.1 12.6719 3.1 12.9219V14.1719C3.1 14.4531 3.31875 14.6719 3.6 14.6719Z" fill="#FF0000"/>
</svg>
