<svg width="17" height="17" viewBox="0 0 17 17" fill="none" xmlns="http://www.w3.org/2000/svg">
<path d="M10.6469 14.5469H0.646875C0.365625 14.5469 0.146875 14.7969 0.146875 15.0469V16.0469C0.146875 16.3281 0.365625 16.5469 0.646875 16.5469H10.6469C10.8969 16.5469 11.1469 16.3281 11.1469 16.0469V15.0469C11.1469 14.7969 10.8969 14.5469 10.6469 14.5469ZM15.5531 3.92188L13.0219 1.39062C12.8344 1.20312 12.4906 1.20312 12.3031 1.39062L11.9594 1.73438C11.7719 1.92188 11.7719 2.23438 11.9594 2.45312L13.1469 3.60938V5.54688C13.1469 6.45312 13.7719 7.17188 14.6469 7.29688V12.2969C14.6469 12.7344 14.3031 13.0469 13.8969 13.0469C13.4594 13.0469 13.1469 12.7344 13.1469 12.2969V11.2969C13.1469 9.79688 11.8969 8.54688 10.3969 8.54688H10.1469V2.54688C10.1469 1.45312 9.24063 0.546875 8.14688 0.546875H3.14688C2.02188 0.546875 1.14688 1.45312 1.14688 2.54688V13.5469H10.1469V10.0469H10.3969C11.0844 10.0469 11.6469 10.6094 11.6469 11.2969V12.1719C11.6469 13.3594 12.4906 14.4219 13.6469 14.5469C14.9906 14.6719 16.1469 13.6406 16.1469 12.2969V5.32812C16.1469 4.79688 15.9281 4.29688 15.5531 3.92188ZM8.14688 6.54688H3.14688V2.54688H8.14688V6.54688Z" fill="#FF0000"/>
</svg>
