<svg width="21" height="17" viewBox="0 0 21 17" fill="none" xmlns="http://www.w3.org/2000/svg">
<path d="M11.0844 1.54688C6.08438 1.54688 2.08438 5.57812 2.08438 10.5469C2.08438 12.2031 2.52188 13.7656 3.30313 15.0781C3.45938 15.3906 3.80313 15.5469 4.14688 15.5469H17.9906C18.3344 15.5469 18.6781 15.3906 18.8344 15.0781C19.6156 13.7656 20.0844 12.2031 20.0844 10.5469C20.0844 5.57812 16.0531 1.54688 11.0844 1.54688ZM11.0844 3.54688C11.5219 3.54688 11.8969 3.89062 12.0219 4.29688C11.9906 4.35938 11.9281 4.42188 11.8969 4.51562L11.6156 5.35938C11.4594 5.48438 11.2719 5.54688 11.0844 5.54688C10.5219 5.54688 10.0844 5.10938 10.0844 4.54688C10.0844 4.01562 10.5219 3.54688 11.0844 3.54688ZM5.08438 12.5469C4.52188 12.5469 4.08438 12.1094 4.08438 11.5469C4.08438 11.0156 4.52188 10.5469 5.08438 10.5469C5.61563 10.5469 6.08438 11.0156 6.08438 11.5469C6.08438 12.1094 5.61563 12.5469 5.08438 12.5469ZM6.58438 7.54688C6.02188 7.54688 5.58438 7.10938 5.58438 6.54688C5.58438 6.01562 6.02188 5.54688 6.58438 5.54688C7.11563 5.54688 7.58438 6.01562 7.58438 6.54688C7.58438 7.10938 7.11563 7.54688 6.58438 7.54688ZM14.2719 5.29688L12.3656 11.0469C12.8031 11.4219 13.0844 11.9531 13.0844 12.5469C13.0844 12.9219 12.9594 13.2656 12.8031 13.5469H9.33438C9.17813 13.2656 9.08438 12.9219 9.08438 12.5469C9.08438 11.5156 9.89688 10.6406 10.9281 10.5781L12.8656 4.82812C12.9906 4.42188 13.3969 4.20312 13.8031 4.35938C14.2094 4.48438 14.3969 4.92188 14.2719 5.29688ZM14.7406 7.07812L15.2094 5.64062C15.3344 5.57812 15.4594 5.57812 15.5844 5.57812C16.1156 5.57812 16.5844 6.01562 16.5844 6.57812C16.5844 7.10938 16.1156 7.57812 15.5844 7.57812C15.2094 7.54688 14.9281 7.35938 14.7406 7.07812ZM17.0844 12.5469C16.5219 12.5469 16.0844 12.1094 16.0844 11.5469C16.0844 11.0156 16.5219 10.5469 17.0844 10.5469C17.6156 10.5469 18.0844 11.0156 18.0844 11.5469C18.0844 12.1094 17.6156 12.5469 17.0844 12.5469Z" fill="#FF0000"/>
</svg>
