<svg width="17" height="17" viewBox="0 0 17 17" fill="none" xmlns="http://www.w3.org/2000/svg">
<path d="M15.9219 8.51562C15.9219 4.26562 12.4219 0.765625 8.17188 0.765625C3.89062 0.765625 0.421875 4.26562 0.421875 8.51562C0.421875 12.7969 3.89062 16.2656 8.17188 16.2656C12.4219 16.2656 15.9219 12.7969 15.9219 8.51562ZM7.26562 12.6406C7.07812 12.8281 6.73438 12.8281 6.54688 12.6406L3.29688 9.39062C3.10938 9.20312 3.10938 8.85938 3.29688 8.67188L4.01562 7.98438C4.20312 7.76562 4.51562 7.76562 4.70312 7.98438L6.92188 10.1719L11.6094 5.48438C11.7969 5.26562 12.1094 5.26562 12.2969 5.48438L13.0156 6.17188C13.2031 6.35938 13.2031 6.70312 13.0156 6.89062L7.26562 12.6406Z" fill="#FF0000"/>
</svg>
